<svg viewBox="0 0 900 420" xmlns="http://www.w3.org/2000/svg" font-family="Segoe UI, system-ui, sans-serif">

  <!-- Background -->
  <rect width="900" height="420" fill="#070d14"/>

  <!-- Azure Region Box -->
  <rect x="30" y="60" width="840" height="300" rx="16" fill="rgba(0,120,212,0.04)" stroke="#0078d4" stroke-width="1.5" stroke-dasharray="8,5"/>

  <!-- Region Label Background -->
  <rect x="52" y="50" width="190" height="22" fill="#070d14"/>
  <text x="58" y="65" font-size="11" font-weight="700" fill="#0078d4" letter-spacing="1.5" font-family="'Courier New', monospace">☁ AZURE · EAST US REGION</text>

  <!-- Header -->
  <text x="450" y="36" text-anchor="middle" font-size="11" font-weight="700" fill="#3a6ea8" letter-spacing="2" font-family="'Courier New', monospace">LAB 01 · AZURE CLOUD SECURITY SERIES</text>

  <!-- ── NODE 1: End User ── -->
  <rect x="55" y="140" width="100" height="100" rx="14" fill="#131f2e" stroke="#2d3f55" stroke-width="1.5"/>
  <!-- User icon -->
  <circle cx="105" cy="170" r="16" fill="none" stroke="#7eb3e0" stroke-width="2"/>
  <path d="M78 210 Q105 192 132 210" fill="none" stroke="#7eb3e0" stroke-width="2" stroke-linecap="round"/>
  <text x="105" y="228" text-anchor="middle" font-size="11" font-weight="700" fill="#c9d1d9">End User</text>
  <text x="105" y="242" text-anchor="middle" font-size="9" fill="#4a5568" font-family="'Courier New', monospace">Browser</text>

  <!-- Arrow 1 -->
  <line x1="158" y1="190" x2="198" y2="190" stroke="#0078d4" stroke-width="2"/>
  <polygon points="198,184 210,190 198,196" fill="#0078d4"/>
  <text x="184" y="183" text-anchor="middle" font-size="8.5" fill="#3a7bd5" font-weight="600" font-family="'Courier New', monospace">HTTPS</text>

  <!-- ── NODE 2: Public Endpoint ── -->
  <rect x="210" y="140" width="110" height="100" rx="14" fill="#0d1f3c" stroke="#1e4080" stroke-width="1.5"/>
  <!-- PaaS badge -->
  <rect x="268" y="133" width="36" height="16" rx="4" fill="#0078d4"/>
  <text x="286" y="144" text-anchor="middle" font-size="8" font-weight="700" fill="white" letter-spacing="0.5">PaaS</text>
  <!-- Globe icon -->
  <circle cx="265" cy="172" r="17" fill="none" stroke="#5ba3f5" stroke-width="1.8"/>
  <ellipse cx="265" cy="172" rx="8" ry="17" fill="none" stroke="#5ba3f5" stroke-width="1.5"/>
  <line x1="248" y1="172" x2="282" y2="172" stroke="#5ba3f5" stroke-width="1.5"/>
  <text x="265" y="208" text-anchor="middle" font-size="11" font-weight="700" fill="#c9d1d9">Public</text>
  <text x="265" y="222" text-anchor="middle" font-size="11" font-weight="700" fill="#c9d1d9">Endpoint</text>
  <text x="265" y="237" text-anchor="middle" font-size="8" fill="#4a5568" font-family="'Courier New', monospace">*.web.core.windows.net</text>

  <!-- Arrow 2 -->
  <line x1="323" y1="190" x2="363" y2="190" stroke="#0078d4" stroke-width="2"/>
  <polygon points="363,184 375,190 363,196" fill="#0078d4"/>
  <text x="349" y="183" text-anchor="middle" font-size="8.5" fill="#3a7bd5" font-weight="600" font-family="'Courier New', monospace">ROUTES</text>

  <!-- ── NODE 3: Storage Account ── -->
  <rect x="375" y="130" width="120" height="120" rx="14" fill="#003a6e" stroke="#0078d4" stroke-width="1.8"/>
  <!-- Storage icon -->
  <rect x="405" y="152" width="60" height="44" rx="5" fill="none" stroke="#8dd0ff" stroke-width="1.8"/>
  <line x1="405" y1="163" x2="465" y2="163" stroke="#8dd0ff" stroke-width="1.5"/>
  <circle cx="412" cy="158" r="2.5" fill="#8dd0ff"/>
  <circle cx="420" cy="158" r="2.5" fill="#8dd0ff"/>
  <line x1="410" y1="172" x2="430" y2="172" stroke="#8dd0ff" stroke-width="1.5" stroke-linecap="round"/>
  <line x1="410" y1="179" x2="438" y2="179" stroke="#8dd0ff" stroke-width="1.5" stroke-linecap="round"/>
  <line x1="410" y1="186" x2="424" y2="186" stroke="#8dd0ff" stroke-width="1.5" stroke-linecap="round"/>
  <text x="435" y="222" text-anchor="middle" font-size="11" font-weight="700" fill="#c9d1d9">Storage</text>
  <text x="435" y="236" text-anchor="middle" font-size="11" font-weight="700" fill="#c9d1d9">Account</text>
  <text x="435" y="250" text-anchor="middle" font-size="8.5" fill="#4a5568" font-family="'Courier New', monospace">stlab01[name] · LRS</text>

  <!-- Arrow 3 -->
  <line x1="498" y1="190" x2="538" y2="190" stroke="#0078d4" stroke-width="2"/>
  <polygon points="538,184 550,190 538,196" fill="#0078d4"/>
  <text x="524" y="183" text-anchor="middle" font-size="8.5" fill="#3a7bd5" font-weight="600" font-family="'Courier New', monospace">READS</text>

  <!-- ── NODE 4: $web Container ── -->
  <rect x="550" y="140" width="110" height="100" rx="14" fill="#0d2035" stroke="#0a4a7a" stroke-width="1.5"/>
  <!-- Container icon -->
  <rect x="576" y="153" width="58" height="44" rx="5" fill="none" stroke="#4a9fd4" stroke-width="1.8"/>
  <line x1="576" y1="164" x2="634" y2="164" stroke="#4a9fd4" stroke-width="1.5"/>
  <rect x="579" y="157" width="8" height="5" rx="1" fill="#4a9fd4"/>
  <rect x="590" y="157" width="8" height="5" rx="1" fill="#4a9fd4"/>
  <rect x="582" y="171" width="46" height="18" rx="3" fill="none" stroke="#4a9fd4" stroke-width="1.5"/>
  <text x="605" y="215" text-anchor="middle" font-size="11" font-weight="700" fill="#c9d1d9">$web</text>
  <text x="605" y="229" text-anchor="middle" font-size="11" font-weight="700" fill="#c9d1d9">Container</text>
  <text x="605" y="244" text-anchor="middle" font-size="8.5" fill="#4a5568" font-family="'Courier New', monospace">Blob · Auto-created</text>

  <!-- Arrow 4 -->
  <line x1="663" y1="190" x2="703" y2="190" stroke="#0078d4" stroke-width="2"/>
  <polygon points="703,184 715,190 703,196" fill="#0078d4"/>
  <text x="689" y="183" text-anchor="middle" font-size="8.5" fill="#3a7bd5" font-weight="600" font-family="'Courier New', monospace">SERVES</text>

  <!-- ── NODE 5: index.html ── -->
  <rect x="715" y="140" width="110" height="100" rx="14" fill="#1a1040" stroke="#5a3ea0" stroke-width="1.5"/>
  <!-- File icon -->
  <path d="M750 153 L750 197 L780 197 L780 162 L771 153 Z" fill="none" stroke="#b794f4" stroke-width="1.8" stroke-linejoin="round"/>
  <path d="M771 153 L771 162 L780 162" fill="none" stroke="#b794f4" stroke-width="1.8" stroke-linejoin="round"/>
  <line x1="756" y1="172" x2="774" y2="172" stroke="#b794f4" stroke-width="1.5" stroke-linecap="round"/>
  <line x1="756" y1="179" x2="774" y2="179" stroke="#b794f4" stroke-width="1.5" stroke-linecap="round"/>
  <line x1="756" y1="186" x2="768" y2="186" stroke="#b794f4" stroke-width="1.5" stroke-linecap="round"/>
  <text x="770" y="215" text-anchor="middle" font-size="11" font-weight="700" fill="#c9d1d9">index.html</text>
  <text x="770" y="229" text-anchor="middle" font-size="11" font-weight="700" fill="#c9d1d9">+ assets</text>
  <text x="770" y="244" text-anchor="middle" font-size="8.5" fill="#4a5568" font-family="'Courier New', monospace">HTML · CSS</text>

  <!-- ── Detail Pills ── -->
  <!-- Pill 1 -->
  <rect x="55" y="310" width="175" height="28" rx="14" fill="#0d1a28" stroke="#1c3050" stroke-width="1"/>
  <circle cx="72" cy="324" r="4" fill="#0078d4"/>
  <text x="83" y="328" font-size="10" fill="#8a9db5"><tspan font-weight="700" fill="#4a90d9" font-family="'Courier New', monospace">Hosting: </tspan>Azure Blob Static Site</text>

  <!-- Pill 2 -->
  <rect x="244" y="310" width="160" height="28" rx="14" fill="#0d1a28" stroke="#1c3050" stroke-width="1"/>
  <circle cx="261" cy="324" r="4" fill="#2ea043"/>
  <text x="272" y="328" font-size="10" fill="#8a9db5"><tspan font-weight="700" fill="#4a90d9" font-family="'Courier New', monospace">Redundancy: </tspan>LRS</text>

  <!-- Pill 3 -->
  <rect x="418" y="310" width="145" height="28" rx="14" fill="#0d1a28" stroke="#1c3050" stroke-width="1"/>
  <circle cx="435" cy="324" r="4" fill="#b794f4"/>
  <text x="446" y="328" font-size="10" fill="#8a9db5"><tspan font-weight="700" fill="#4a90d9" font-family="'Courier New', monospace">Tier: </tspan>PaaS / Serverless</text>

  <!-- Pill 4 -->
  <rect x="577" y="310" width="130" height="28" rx="14" fill="#0d1a28" stroke="#1c3050" stroke-width="1"/>
  <circle cx="594" cy="324" r="4" fill="#f6993f"/>
  <text x="605" y="328" font-size="10" fill="#8a9db5"><tspan font-weight="700" fill="#4a90d9" font-family="'Courier New', monospace">Region: </tspan>East US</text>

  <!-- Pill 5 -->
  <rect x="721" y="310" width="130" height="28" rx="14" fill="#0d1a28" stroke="#1c3050" stroke-width="1"/>
  <circle cx="738" cy="324" r="4" fill="#fc8181"/>
  <text x="749" y="328" font-size="10" fill="#8a9db5"><tspan font-weight="700" fill="#4a90d9" font-family="'Courier New', monospace">Protocol: </tspan>HTTPS</text>

  <!-- Footer -->
  <text x="450" y="395" text-anchor="middle" font-size="9.5" fill="#2d3f55" font-family="'Courier New', monospace" letter-spacing="1">#AzureCloudLabs · Lab 01 · github.com/javen-m</text>

</svg>
